<svg width="422" height="421" viewBox="0 0 422 421" fill="none" xmlns="http://www.w3.org/2000/svg">
<path d="M71.6633 64.5L206.663 187.5C206.663 187.5 198.663 198.5 196.663 201.5C194.663 204.5 189.663 213.5 188.163 218.5C186.663 223.5 184.663 238.5 184.663 238.5C184.663 243.833 184.163 246.5 184.663 256C185.163 265.5 186.163 268.5 188.163 273.5C190.163 278.5 196.663 293.5 196.663 293.5C196.663 293.5 205.163 309 207.663 313C210.163 317 220.663 329.5 220.663 329.5L233.663 344.5L247.663 359L262.163 372.5L280.163 388.5L296.163 402.5L310.163 420.572H139.358C88.2732 421.329 36.7179 418.069 29.6633 402.5C15.1633 370.5 18.1633 383 8.16327 342C-1.83674 301 0.163266 261 0.163266 261L4.66327 221C4.66327 221 4.16327 223 12.1633 187.5C20.1633 152 27.6633 138 50.1633 100C72.6633 62 71.6633 64.5 71.6633 64.5Z" fill="url(#paint0_linear_1_32)"/>
<path d="M326.663 282C327.33 284.5 328.663 289.9 328.663 291.5L214.163 182L207.663 188.5L339.163 315.5L351.163 310H344.163L340.663 309L337.163 306.5L334.163 303L332.663 298.5V294.5L334.163 289L338.163 285L343.663 282H326.663Z" fill="url(#paint1_linear_1_32)"/>
<path d="M421.663 113.5H349.163L349.663 277H421.663V113.5Z" fill="url(#paint2_linear_1_32)"/>
<path d="M377.163 157V162V162.5L378.163 163L382.163 165L385.663 168L388.163 170.5L390.163 173.5L392.663 177.5L394.163 180.5L395.663 185L397.163 192.5V185L396.163 180L395.163 177.5L393.663 173.5L392.163 170.5L389.663 166.5L386.163 163L382.163 160L377.163 157Z" fill="black"/>
<path d="M387.163 174.826L376.163 167L380.563 179C380.563 179 381.663 177 382.763 175.87C383.863 174.739 387.163 174.826 387.163 174.826Z" fill="black"/>
<path d="M385.514 185.85L395.988 194.541L392.253 181.821C392.253 181.821 391.172 184.103 389.917 184.976C388.663 185.85 385.514 185.85 385.514 185.85Z" fill="black"/>
<path d="M421.163 3.5L393.663 79.5L387.163 70L380.163 62L367.663 50L349.663 35V108.5H421.163V3.5Z" fill="#41F6FC"/>
<path d="M344.163 277H325.163C325.163 277 324.163 273.5 323.163 271C322.163 268.5 319.663 264 319.663 264C319.663 264 316.163 258 313.163 254.5C310.163 251 304.663 246 304.663 246L297.163 239L287.663 230.5L279.663 222.5L272.663 214.5L267.163 206.5L262.663 198C262.663 198 260.163 193 259.663 189C259.163 185 259.163 178.5 259.163 178.5L259.663 165.5C259.663 165.5 249.663 164.5 241.663 167.5C233.663 170.5 227.663 173.5 227.663 173.5L214.163 181.5L77.1633 58.5C77.1633 58.5 88.6633 48 92.6633 44C96.6633 40 103.163 35.5 109.663 31C116.163 26.5 119.663 25 138.163 18C156.663 11 188.163 4 188.163 4L211.663 1C211.663 1 222.663 0 243.163 0C263.663 0 269.663 1 269.663 1L281.663 4.5L297.663 9.5L308.163 13L319.163 18L331.163 24L344.163 32V277Z" fill="url(#paint3_linear_1_32)"/>
<path d="M421.663 282L343.163 319L369.663 341.5L421.663 317V282Z" fill="#41F6FC"/>
<path d="M358.663 296C358.663 302.075 353.738 307 347.663 307C341.588 307 336.663 302.075 336.663 296C336.663 289.925 341.588 285 347.663 285C353.738 285 358.663 289.925 358.663 296Z" fill="white"/>
<path d="M415.663 281.5L355.663 308C355.663 308 364.163 302 362.163 292.5C360.163 283 349.663 281.5 349.663 281.5L415.663 281.5Z" fill="#41F6FC"/>
<defs>
<linearGradient id="paint0_linear_1_32" x1="231.163" y1="204.5" x2="37.1633" y2="414" gradientUnits="userSpaceOnUse">
<stop stop-color="#41F6FC"/>
<stop offset="1" stop-color="white"/>
</linearGradient>
<linearGradient id="paint1_linear_1_32" x1="279.413" y1="182" x2="299.663" y2="351" gradientUnits="userSpaceOnUse">
<stop stop-color="#41F6FC"/>
<stop offset="1" stop-color="white"/>
</linearGradient>
<linearGradient id="paint2_linear_1_32" x1="382.663" y1="281" x2="442.663" y2="86" gradientUnits="userSpaceOnUse">
<stop offset="0.355769" stop-color="#41F6FC"/>
<stop offset="1" stop-color="#F3FFFF"/>
</linearGradient>
<linearGradient id="paint3_linear_1_32" x1="210.663" y1="0" x2="210.663" y2="277" gradientUnits="userSpaceOnUse">
<stop stop-color="#61CDEA"/>
<stop offset="1" stop-color="white"/>
</linearGradient>
</defs>
</svg>
